<svg id="logo-color" data-name="svg-logo-color" viewBox="0 0 284 104" xmlns="http://www.w3.org/2000/svg" xmlns:xlink="http://www.w3.org/1999/xlink">
  <defs>
    <style>
      .cls-1 {
        fill: none;
      }

      .cls-2 {
        fill: #003279;
      }

      .cls-3 {
        fill: #040000;
      }

      .cls-4 {
        clip-path: url(#clip-path);
      }

      .cls-5 {
        fill: url(#radial-gradient);
      }
    </style>
    <clipPath id="clip-path">
      <path class="cls-1"
            d="M100.72,1.43a37.83,37.83,0,1,0,37.83,37.83A37.87,37.87,0,0,0,100.72,1.43Zm0,64.15A26.32,26.32,0,1,1,127,39.26,26.34,26.34,0,0,1,100.72,65.58Z" />
    </clipPath>
    <radialGradient id="radial-gradient" cx="89.38" cy="27.82" r="54" gradientUnits="userSpaceOnUse">
      <stop offset="0" stop-color="#fff" />
      <stop offset="0.04" stop-color="#fce7f1" />
      <stop offset="0.12" stop-color="#f6bad6" />
      <stop offset="0.19" stop-color="#f194c0" />
      <stop offset="0.27" stop-color="#ed77ae" />
      <stop offset="0.35" stop-color="#ea63a2" />
      <stop offset="0.43" stop-color="#e9569a" />
      <stop offset="0.5" stop-color="#e85298" />
      <stop offset="1" stop-color="#7e0043" />
    </radialGradient>
  </defs>
  <title>logo-color</title>
  <path class="cls-2" d="M189.5,74H142.17L154.45,4.61h12.22L156.42,62.47h35.12L189.5,74Z" />
  <polygon class="cls-2"
           points="271.08 4.61 253.08 4.62 215.92 36.13 221.5 4.61 208.88 4.61 196.59 74.03 209.22 74.03 215.13 40.59 242.73 74.03 258.6 74.03 230.08 39.44 271.08 4.61" />
  <path class="cls-2" d="M14.78,74H2.57L14.85,4.61H62.19l-2,11.56H25L21.82,34.4H56.08L54,46H19.78L14.78,74Z" />
  <path class="cls-2"
        d="M278.77,73.08A9.1,9.1,0,0,1,265.91,60.2a8.73,8.73,0,0,1,6.41-2.66,9.11,9.11,0,0,1,6.45,15.54Zm-12-12a7.86,7.86,0,0,0,5.53,13.43,7.5,7.5,0,0,0,5.54-2.31,7.92,7.92,0,0,0,0-11.12,7.79,7.79,0,0,0-11.07,0Zm5.35.51a7.64,7.64,0,0,1,2.73.36,2.47,2.47,0,0,1,1.55,2.53,2.18,2.18,0,0,1-1,2A3.72,3.72,0,0,1,274,67a2.41,2.41,0,0,1,1.72,1,2.72,2.72,0,0,1,.54,1.54v.74c0,.23,0,.47,0,.74a1.53,1.53,0,0,0,.08.52l.06.12h-1.64l0-.1a.36.36,0,0,1,0-.11l0-.32v-.79a2.47,2.47,0,0,0-.94-2.29,4.34,4.34,0,0,0-2-.32h-1.39v3.93h-1.76v-10Zm1.91,1.57a4.74,4.74,0,0,0-2.14-.37h-1.5v3.62H272a4.75,4.75,0,0,0,1.68-.22,1.81,1.81,0,0,0,.37-3Z" />
  <path class="cls-3"
        d="M76.28,89a2.34,2.34,0,0,1-.07.46,1.4,1.4,0,0,1-.16.44.28.28,0,0,1-.22.15.45.45,0,0,1-.29-.16,2.61,2.61,0,0,0-.45-.35,3.09,3.09,0,0,0-1.85-.52,3.18,3.18,0,0,0-1.36.28,3.71,3.71,0,0,0-1.1.75,5.11,5.11,0,0,0-.86,1.09,7.36,7.36,0,0,0-.62,1.3,9.58,9.58,0,0,0-.37,1.37,7.69,7.69,0,0,0-.12,1.31A4.08,4.08,0,0,0,69,96.42a2.44,2.44,0,0,0,.51.94,2.17,2.17,0,0,0,.82.57,3,3,0,0,0,1.11.2A3.81,3.81,0,0,0,72.62,98a4.67,4.67,0,0,0,.86-.34,6.94,6.94,0,0,0,.6-.35.8.8,0,0,1,.39-.15.15.15,0,0,1,.14.07.41.41,0,0,1,0,.21.72.72,0,0,1,0,.13l0,.18,0,.21a.79.79,0,0,1-.06.22c0,.07-.05.13-.07.19a.66.66,0,0,1-.14.17,1.93,1.93,0,0,1-.39.26,3.75,3.75,0,0,1-.72.33,7.13,7.13,0,0,1-1,.26,5.13,5.13,0,0,1-1.14.11,4.59,4.59,0,0,1-1.62-.27,3.26,3.26,0,0,1-1.24-.79,3.64,3.64,0,0,1-.79-1.31,5.59,5.59,0,0,1-.28-1.81,8.77,8.77,0,0,1,.18-1.73,9.56,9.56,0,0,1,.52-1.73,7.83,7.83,0,0,1,.87-1.58,6,6,0,0,1,1.2-1.31,5.27,5.27,0,0,1,3.43-1.21,4.66,4.66,0,0,1,1.21.15,3.94,3.94,0,0,1,1,.36,2.69,2.69,0,0,1,.58.4A.53.53,0,0,1,76.28,89Z" />
  <path class="cls-3"
        d="M82.29,91.15s0,.07,0,.14,0,.14,0,.23,0,.18-.06.28a1.14,1.14,0,0,1-.09.26,1,1,0,0,1-.11.2.17.17,0,0,1-.13.08.34.34,0,0,1-.15,0l-.19-.07-.23-.08a1.42,1.42,0,0,0-.31,0,1.38,1.38,0,0,0-.7.26,3.71,3.71,0,0,0-.77.73,5.24,5.24,0,0,0-.7,1.09,5.31,5.31,0,0,0-.46,1.36l-.7,3.55a.23.23,0,0,1-.06.12.56.56,0,0,1-.14.09,1,1,0,0,1-.23.05l-.36,0-.36,0a.81.81,0,0,1-.21-.05.3.3,0,0,1-.1-.09.16.16,0,0,1,0-.12l1.58-8a.24.24,0,0,1,.06-.11.22.22,0,0,1,.13-.09.65.65,0,0,1,.22-.05h.61a.39.39,0,0,1,.18.05.16.16,0,0,1,.09.09.37.37,0,0,1,0,.11l-.3,1.45a5.22,5.22,0,0,1,.49-.7,3.29,3.29,0,0,1,.6-.58,3.06,3.06,0,0,1,.69-.41,1.8,1.8,0,0,1,.7-.15l.31,0,.29.06.23.07a.48.48,0,0,1,.16.09A.26.26,0,0,1,82.29,91.15Z" />
  <path class="cls-3"
        d="M90,92.77a2.14,2.14,0,0,1-.28,1.1,2.39,2.39,0,0,1-.89.83,4.94,4.94,0,0,1-1.54.53,11.18,11.18,0,0,1-2.25.19h-.94A3.78,3.78,0,0,0,84,96a4.79,4.79,0,0,0,0,.52,1.9,1.9,0,0,0,.43,1.35,1.87,1.87,0,0,0,1.43.47,5.24,5.24,0,0,0,1-.08c.31-.06.57-.12.79-.18l.54-.18a1,1,0,0,1,.3-.09.14.14,0,0,1,.12.06.34.34,0,0,1,0,.16c0,.06,0,.13,0,.22a1.29,1.29,0,0,1-.06.25,1.14,1.14,0,0,1-.22.44,1.09,1.09,0,0,1-.37.21,5.33,5.33,0,0,1-.65.18,8,8,0,0,1-.81.14,8.85,8.85,0,0,1-.89,0,4.81,4.81,0,0,1-1.38-.18,2.5,2.5,0,0,1-1-.54,2.3,2.3,0,0,1-.58-.92,3.8,3.8,0,0,1-.2-1.29,8,8,0,0,1,.11-1.24A7.58,7.58,0,0,1,83,94a6.53,6.53,0,0,1,.62-1.24,4.84,4.84,0,0,1,.91-1.05A4.23,4.23,0,0,1,85.72,91a4.05,4.05,0,0,1,1.56-.28,3.63,3.63,0,0,1,1.26.19,2.49,2.49,0,0,1,.85.48,1.75,1.75,0,0,1,.48.65A1.81,1.81,0,0,1,90,92.77Zm-1.5.13a.88.88,0,0,0-.35-.73,1.64,1.64,0,0,0-1-.28,2.54,2.54,0,0,0-1,.2,2.6,2.6,0,0,0-.78.54,3.33,3.33,0,0,0-.59.78,5,5,0,0,0-.39,1h.9a8.52,8.52,0,0,0,1.56-.12,3.82,3.82,0,0,0,1-.31,1.31,1.31,0,0,0,.53-.47A1.12,1.12,0,0,0,88.52,92.9Z" />
  <path class="cls-3"
        d="M97.68,99.11a.29.29,0,0,1-.19.21,1.4,1.4,0,0,1-.53.07l-.3,0-.18-.05a.21.21,0,0,1-.1-.08.15.15,0,0,1,0-.13l.29-1.5a2.26,2.26,0,0,1-.41.62,4,4,0,0,1-.72.62,4.87,4.87,0,0,1-.91.47,3.06,3.06,0,0,1-1,.18,2.41,2.41,0,0,1-1.17-.25,2,2,0,0,1-.74-.65,2.42,2.42,0,0,1-.38-.92,5.36,5.36,0,0,1-.1-1.06,8.26,8.26,0,0,1,.39-2.41,7.81,7.81,0,0,1,.54-1.27,4.77,4.77,0,0,1,.8-1.11A3.85,3.85,0,0,1,94,91a3.24,3.24,0,0,1,1.41-.3,2.7,2.7,0,0,1,1.35.32,3.48,3.48,0,0,1,1,.88l.17-.81a.29.29,0,0,1,.2-.2,1.67,1.67,0,0,1,.52-.06H99a.48.48,0,0,1,.19.05.13.13,0,0,1,.09.09.37.37,0,0,1,0,.11Zm-.27-5.89a3.29,3.29,0,0,0-.9-.92,2,2,0,0,0-1.09-.3,1.69,1.69,0,0,0-.86.22,2.58,2.58,0,0,0-.68.6,3.76,3.76,0,0,0-.51.85,5.46,5.46,0,0,0-.36,1,7,7,0,0,0-.2,1,5.75,5.75,0,0,0-.07.88,4.18,4.18,0,0,0,.05.61,1.49,1.49,0,0,0,.19.56,1.12,1.12,0,0,0,.37.41,1.16,1.16,0,0,0,.62.15A2,2,0,0,0,95,98a3.53,3.53,0,0,0,.92-.75,5.47,5.47,0,0,0,.75-1.12,5.74,5.74,0,0,0,.49-1.43Z" />
  <path class="cls-3"
        d="M107.79,99.11a.23.23,0,0,1-.06.12.56.56,0,0,1-.14.09.89.89,0,0,1-.23.05l-.36,0-.35,0a.8.8,0,0,1-.22-.05.3.3,0,0,1-.1-.09.16.16,0,0,1,0-.12l1.4-7H103.6l-.89,4.45a3.66,3.66,0,0,0-.07.42c0,.15,0,.28,0,.38a1,1,0,0,0,.19.66.77.77,0,0,0,.61.2,1.76,1.76,0,0,0,.42,0,1.6,1.6,0,0,0,.3-.08l.23-.08a.41.41,0,0,1,.17,0,.12.12,0,0,1,.11.05.26.26,0,0,1,0,.18,2.5,2.5,0,0,1,0,.25l-.06.27a.85.85,0,0,1-.09.24.56.56,0,0,1-.11.17.86.86,0,0,1-.22.12,2,2,0,0,1-.32.11l-.4.08-.41,0a3.13,3.13,0,0,1-.86-.1,1.4,1.4,0,0,1-.61-.34,1.28,1.28,0,0,1-.37-.56,2.49,2.49,0,0,1-.12-.82c0-.07,0-.15,0-.24s0-.17,0-.27l0-.28a2.56,2.56,0,0,1,0-.27l.89-4.48H101a.25.25,0,0,1-.15-.05.41.41,0,0,1-.05-.23,1.68,1.68,0,0,1,0-.29,1,1,0,0,1,.08-.3.68.68,0,0,1,.13-.24.25.25,0,0,1,.2-.1h1.12l.38-1.9a.14.14,0,0,1,.06-.11.25.25,0,0,1,.13-.09.7.7,0,0,1,.24-.06l.36,0,.35,0a.53.53,0,0,1,.22.06.18.18,0,0,1,.1.09.2.2,0,0,1,0,.11l-.38,1.9H109c.17,0,.29,0,.34.12a.45.45,0,0,1,0,.35Zm2.28-10.65a1.86,1.86,0,0,1-.11.41,1,1,0,0,1-.2.27.81.81,0,0,1-.31.15,1.92,1.92,0,0,1-.45,0,1.74,1.74,0,0,1-.43,0,.42.42,0,0,1-.24-.15.54.54,0,0,1-.08-.27,1.61,1.61,0,0,1,0-.41,1.4,1.4,0,0,1,.12-.42.66.66,0,0,1,.2-.27.77.77,0,0,1,.3-.15,1.92,1.92,0,0,1,.45,0,1.74,1.74,0,0,1,.43,0,.42.42,0,0,1,.24.15.58.58,0,0,1,.09.27A1.81,1.81,0,0,1,110.07,88.46Z" />
  <path class="cls-3"
        d="M118.29,92.9a6,6,0,0,1,0,.61c0,.2-.06.41-.1.62l-1,5a.23.23,0,0,1-.06.12.36.36,0,0,1-.13.09l-.23.05-.37,0-.35,0a.81.81,0,0,1-.21-.05.3.3,0,0,1-.1-.09.23.23,0,0,1,0-.12l1-4.92c0-.19.07-.36.09-.53s0-.33,0-.46a1.52,1.52,0,0,0-.23-.87.87.87,0,0,0-.77-.33,2,2,0,0,0-1,.27,3.49,3.49,0,0,0-.91.74,5,5,0,0,0-.76,1.13,5.33,5.33,0,0,0-.48,1.41L112,99.11a.23.23,0,0,1-.06.12.48.48,0,0,1-.13.09,1.11,1.11,0,0,1-.24.05l-.36,0-.36,0a.81.81,0,0,1-.21-.05.3.3,0,0,1-.1-.09.24.24,0,0,1,0-.12l1.6-8a.22.22,0,0,1,.05-.11.25.25,0,0,1,.13-.09.54.54,0,0,1,.21-.05h.61a.48.48,0,0,1,.19.05.14.14,0,0,1,.08.09.37.37,0,0,1,0,.11l-.3,1.52a2.44,2.44,0,0,1,.43-.63,3.66,3.66,0,0,1,.72-.62,4,4,0,0,1,.92-.47,2.82,2.82,0,0,1,1-.19,2.43,2.43,0,0,1,1,.18,1.78,1.78,0,0,1,1,1.17A3.1,3.1,0,0,1,118.29,92.9Z" />
  <path class="cls-3"
        d="M126.31,99.74a3.8,3.8,0,0,1-.46,1.24,2.81,2.81,0,0,1-.8.88,3.58,3.58,0,0,1-1.15.53,5.92,5.92,0,0,1-1.52.18,5.55,5.55,0,0,1-1.34-.15,3.69,3.69,0,0,1-1-.35.83.83,0,0,1-.19-.17.48.48,0,0,1,0-.22v-.15a.69.69,0,0,1,0-.2,1.94,1.94,0,0,1,0-.2,1.08,1.08,0,0,1,.08-.19.3.3,0,0,1,.12-.13.3.3,0,0,1,.15,0,.6.6,0,0,1,.27.09,4,4,0,0,0,.42.21,3.68,3.68,0,0,0,.66.21,3.86,3.86,0,0,0,1,.1,3.22,3.22,0,0,0,.86-.1,2.09,2.09,0,0,0,.68-.29,1.5,1.5,0,0,0,.47-.5,2.39,2.39,0,0,0,.27-.71c.1-.54.2-1,.3-1.34s.18-.63.25-.82a2.74,2.74,0,0,1-.46.66,4.28,4.28,0,0,1-.71.61,4.45,4.45,0,0,1-.9.45,3,3,0,0,1-1,.17,2.59,2.59,0,0,1-1.13-.22,1.9,1.9,0,0,1-.73-.61,2.37,2.37,0,0,1-.41-.91,5.11,5.11,0,0,1-.12-1.14,7.15,7.15,0,0,1,.1-1.15,7,7,0,0,1,.31-1.3,7.71,7.71,0,0,1,.54-1.26,4.93,4.93,0,0,1,.8-1.1,3.87,3.87,0,0,1,1.09-.78,3.26,3.26,0,0,1,1.39-.29,2.7,2.7,0,0,1,1.35.32,3.48,3.48,0,0,1,1,.88l.17-.81a.29.29,0,0,1,.2-.2,1.67,1.67,0,0,1,.52-.06h.3a.48.48,0,0,1,.19.05A.13.13,0,0,1,128,91a.37.37,0,0,1,0,.11Zm-.14-6.52a3.29,3.29,0,0,0-.9-.92,2,2,0,0,0-1.09-.3,1.63,1.63,0,0,0-.85.22,2.37,2.37,0,0,0-.68.59,3.93,3.93,0,0,0-.52.85,5.66,5.66,0,0,0-.36,1,7.37,7.37,0,0,0-.2,1,5.78,5.78,0,0,0-.07.89,3.14,3.14,0,0,0,.07.7,1.45,1.45,0,0,0,.21.54,1.09,1.09,0,0,0,.38.36,1.14,1.14,0,0,0,.57.13,2,2,0,0,0,1-.27,3.53,3.53,0,0,0,.92-.75,5.28,5.28,0,0,0,.75-1.13,5.66,5.66,0,0,0,.49-1.42Z" />
  <path class="cls-3"
        d="M138.06,99.07a.7.7,0,0,1-.13.16.48.48,0,0,1-.19.09,1,1,0,0,1-.29.05l-.44,0-.47,0a1,1,0,0,1-.29-.05.29.29,0,0,1-.16-.1.28.28,0,0,1-.05-.16l-1.63-10.72c0-.11,0-.2,0-.27a.21.21,0,0,1,.08-.16.45.45,0,0,1,.23-.07,2.62,2.62,0,0,1,.43,0h.42a1.09,1.09,0,0,1,.25,0,.2.2,0,0,1,.12.1.54.54,0,0,1,0,.15l1.34,9.64h0l5.11-9.65a.56.56,0,0,1,.1-.15.48.48,0,0,1,.16-.09,1.2,1.2,0,0,1,.26,0h.43l.43,0a.51.51,0,0,1,.23.08.2.2,0,0,1,0,.19,1.38,1.38,0,0,1-.13.31Z" />
  <path class="cls-3"
        d="M149.28,99.11a.3.3,0,0,1-.2.21,1.34,1.34,0,0,1-.53.07l-.29,0a.74.74,0,0,1-.19-.05.27.27,0,0,1-.1-.08.28.28,0,0,1,0-.13l.3-1.5a2.6,2.6,0,0,1-.42.62,4.32,4.32,0,0,1-.71.62,5,5,0,0,1-.92.47,3.06,3.06,0,0,1-1,.18,2.41,2.41,0,0,1-1.17-.25,2,2,0,0,1-.74-.65,2.6,2.6,0,0,1-.38-.92,6.24,6.24,0,0,1-.1-1.06,8,8,0,0,1,.09-1.12,9.26,9.26,0,0,1,.31-1.29,7,7,0,0,1,.54-1.27,4.77,4.77,0,0,1,.8-1.11,3.59,3.59,0,0,1,1.09-.79,3.18,3.18,0,0,1,1.41-.3,2.75,2.75,0,0,1,1.35.32,3.45,3.45,0,0,1,1,.88l.17-.81a.29.29,0,0,1,.2-.2,1.75,1.75,0,0,1,.53-.06h.29a.43.43,0,0,1,.19.05.13.13,0,0,1,.09.09.2.2,0,0,1,0,.11ZM149,93.22a3.16,3.16,0,0,0-.9-.92A2,2,0,0,0,147,92a1.71,1.71,0,0,0-.87.22,2.74,2.74,0,0,0-.68.6,3.76,3.76,0,0,0-.51.85,6.35,6.35,0,0,0-.36,1,8.68,8.68,0,0,0-.2,1,7.38,7.38,0,0,0-.07.88,4.18,4.18,0,0,0,0,.61,2,2,0,0,0,.19.56,1,1,0,0,0,1,.56,2,2,0,0,0,1-.27,3.38,3.38,0,0,0,.92-.75,5.09,5.09,0,0,0,.75-1.12,5.74,5.74,0,0,0,.49-1.43Z" />
  <path class="cls-3"
        d="M153.45,99.11a.23.23,0,0,1-.06.12.56.56,0,0,1-.14.09,1,1,0,0,1-.23.05l-.36,0-.36,0a.81.81,0,0,1-.21-.05.3.3,0,0,1-.1-.09.24.24,0,0,1,0-.12l2.35-11.83a.52.52,0,0,1,.06-.13.32.32,0,0,1,.13-.08.84.84,0,0,1,.24-.06l.37,0,.35,0a.53.53,0,0,1,.21.06.21.21,0,0,1,.1.08.28.28,0,0,1,0,.13Z" />
  <path class="cls-3"
        d="M162.77,99.11a.31.31,0,0,1-.06.13.36.36,0,0,1-.12.08.81.81,0,0,1-.21.05l-.31,0-.3,0a.74.74,0,0,1-.19-.05.15.15,0,0,1-.08-.08.19.19,0,0,1,0-.13l.29-1.5a2.37,2.37,0,0,1-.44.64,4.82,4.82,0,0,1-.72.61,3.82,3.82,0,0,1-.9.46,2.89,2.89,0,0,1-1,.18,2.8,2.8,0,0,1-1-.16,1.76,1.76,0,0,1-.66-.45,1.69,1.69,0,0,1-.36-.69,2.94,2.94,0,0,1-.11-.86,4.22,4.22,0,0,1,0-.6c0-.2.06-.41.1-.61l1-5a.24.24,0,0,1,.06-.11.28.28,0,0,1,.14-.09.72.72,0,0,1,.24-.05h.71a.54.54,0,0,1,.21.05.18.18,0,0,1,.1.09.2.2,0,0,1,0,.11l-1,4.94a4,4,0,0,0-.08.48,4.36,4.36,0,0,0,0,.51,2.44,2.44,0,0,0,0,.48,1,1,0,0,0,.17.38.83.83,0,0,0,.31.24,1.08,1.08,0,0,0,.46.09,1.94,1.94,0,0,0,1-.27,3.38,3.38,0,0,0,.92-.75,5.31,5.31,0,0,0,.76-1.13,6,6,0,0,0,.49-1.44l.7-3.53A.17.17,0,0,1,163,91a.28.28,0,0,1,.14-.09.72.72,0,0,1,.24-.05h.71a.54.54,0,0,1,.21.05.18.18,0,0,1,.1.09.2.2,0,0,1,0,.11Z" />
  <path class="cls-3"
        d="M173.09,92.77a2.14,2.14,0,0,1-.28,1.1,2.32,2.32,0,0,1-.89.83,4.94,4.94,0,0,1-1.54.53,11.18,11.18,0,0,1-2.25.19h-.94c0,.19-.06.38-.08.56s0,.36,0,.52a1.91,1.91,0,0,0,.44,1.35,1.83,1.83,0,0,0,1.42.47,5.28,5.28,0,0,0,1-.08l.78-.18.55-.18a.87.87,0,0,1,.29-.09.14.14,0,0,1,.12.06.34.34,0,0,1,0,.16c0,.06,0,.13,0,.22s0,.16,0,.25a1.73,1.73,0,0,1-.1.24,1,1,0,0,1-.12.2,1.28,1.28,0,0,1-.38.21,5.68,5.68,0,0,1-.64.18,8.19,8.19,0,0,1-.82.14,8.65,8.65,0,0,1-.88,0,4.83,4.83,0,0,1-1.39-.18,2.39,2.39,0,0,1-1-.54,2.21,2.21,0,0,1-.59-.92,3.8,3.8,0,0,1-.2-1.29,8,8,0,0,1,.11-1.24A7.58,7.58,0,0,1,166,94a6.53,6.53,0,0,1,.62-1.24,4.84,4.84,0,0,1,.91-1.05,4.23,4.23,0,0,1,1.22-.72,4.05,4.05,0,0,1,1.56-.28,3.59,3.59,0,0,1,1.26.19,2.4,2.4,0,0,1,.85.48,1.75,1.75,0,0,1,.48.65A1.81,1.81,0,0,1,173.09,92.77Zm-1.49.13a.89.89,0,0,0-.36-.73,1.62,1.62,0,0,0-1-.28,2.54,2.54,0,0,0-1,.2,2.6,2.6,0,0,0-.78.54,3,3,0,0,0-.58.78,4.44,4.44,0,0,0-.4,1h.91a8.41,8.41,0,0,0,1.55-.12,3.7,3.7,0,0,0,1-.31,1.31,1.31,0,0,0,.53-.47A1,1,0,0,0,171.6,92.9Z" />
  <path class="cls-3"
        d="M184.9,87.51a.54.54,0,0,1,0,.11,1.11,1.11,0,0,1,0,.17,1.62,1.62,0,0,1,0,.19l-.06.19a.58.58,0,0,1-.08.14.12.12,0,0,1-.1.06.34.34,0,0,1-.15,0l-.22-.07-.29-.08a2.22,2.22,0,0,0-.37,0,1.63,1.63,0,0,0-.66.11,1.23,1.23,0,0,0-.46.36,2.12,2.12,0,0,0-.33.62,6.35,6.35,0,0,0-.23.87l-.15.8h1.78a.19.19,0,0,1,.16.07.36.36,0,0,1,.05.21,1.48,1.48,0,0,1,0,.21c0,.07,0,.14-.05.2a1.18,1.18,0,0,1-.07.2.6.6,0,0,1-.08.16.65.65,0,0,1-.11.12.24.24,0,0,1-.13,0h-1.79L180,99.67a5.6,5.6,0,0,1-.41,1.29,3,3,0,0,1-.63.9,2.26,2.26,0,0,1-.86.53,3.13,3.13,0,0,1-1.1.18,2.39,2.39,0,0,1-.65-.07,1,1,0,0,1-.31-.11.19.19,0,0,1,0-.1.28.28,0,0,1,0-.14.68.68,0,0,1,0-.12l0-.18a1.8,1.8,0,0,1,.05-.19.6.6,0,0,1,.06-.19.37.37,0,0,1,.08-.14.12.12,0,0,1,.1-.06l.12,0,.13,0,.16,0h.23a1.75,1.75,0,0,0,.64-.11,1.16,1.16,0,0,0,.46-.36,1.9,1.9,0,0,0,.32-.62,5.88,5.88,0,0,0,.24-.89L180,92.12h-1.13a.2.2,0,0,1-.14-.05.4.4,0,0,1-.05-.22,1,1,0,0,1,0-.17l0-.21a1.66,1.66,0,0,1,.06-.21.56.56,0,0,1,.09-.17A.36.36,0,0,1,179,91a.22.22,0,0,1,.14,0h1.12l.22-1.11a5.26,5.26,0,0,1,.41-1.27,3.23,3.23,0,0,1,.64-.9,2.4,2.4,0,0,1,.87-.52,3.14,3.14,0,0,1,1.08-.18l.41,0a2.57,2.57,0,0,1,.4.06,1.26,1.26,0,0,1,.31.09.59.59,0,0,1,.2.11.24.24,0,0,1,.07.12A.47.47,0,0,1,184.9,87.51Z" />
  <path class="cls-3"
        d="M191.63,93.78a7.76,7.76,0,0,1-.12,1.34,6.56,6.56,0,0,1-.38,1.31,5.93,5.93,0,0,1-.64,1.19,4.52,4.52,0,0,1-.92,1,4.18,4.18,0,0,1-1.19.66,4.44,4.44,0,0,1-1.49.24,4.77,4.77,0,0,1-1.46-.2,2.55,2.55,0,0,1-1-.6,2.28,2.28,0,0,1-.57-1,4,4,0,0,1-.19-1.29,7.65,7.65,0,0,1,.12-1.33,5.89,5.89,0,0,1,.38-1.32,6.53,6.53,0,0,1,.64-1.19,4.46,4.46,0,0,1,.91-1,4.63,4.63,0,0,1,1.2-.66,4.35,4.35,0,0,1,1.49-.24,4.5,4.5,0,0,1,1.46.21,2.7,2.7,0,0,1,1,.6,2.48,2.48,0,0,1,.58,1A4.26,4.26,0,0,1,191.63,93.78Zm-1.54.09a3.26,3.26,0,0,0-.09-.8,1.49,1.49,0,0,0-.31-.6,1.52,1.52,0,0,0-.57-.37,2.3,2.3,0,0,0-.84-.14,2.5,2.5,0,0,0-1,.19,2.55,2.55,0,0,0-.77.52,3.25,3.25,0,0,0-.6.76,4,4,0,0,0-.41.92,6,6,0,0,0-.25,1,7.1,7.1,0,0,0-.08,1,2.78,2.78,0,0,0,.1.8,1.43,1.43,0,0,0,.31.6,1.33,1.33,0,0,0,.57.38,2.3,2.3,0,0,0,.84.14,2.5,2.5,0,0,0,1-.19,2.82,2.82,0,0,0,.77-.52,3.43,3.43,0,0,0,.59-.76,4.89,4.89,0,0,0,.42-.93,5.93,5.93,0,0,0,.24-1A7,7,0,0,0,190.09,93.87Z" />
  <path class="cls-3"
        d="M199,91.15s0,.07,0,.14,0,.14,0,.23,0,.18,0,.28a1.14,1.14,0,0,1-.09.26,1.8,1.8,0,0,1-.11.2.17.17,0,0,1-.13.08.28.28,0,0,1-.15,0l-.19-.07-.23-.08a1.48,1.48,0,0,0-.31,0,1.32,1.32,0,0,0-.7.26,3.71,3.71,0,0,0-.77.73,5.24,5.24,0,0,0-.7,1.09,5.74,5.74,0,0,0-.47,1.36l-.7,3.55a.23.23,0,0,1-.06.12.48.48,0,0,1-.13.09l-.23.05-.36,0-.36,0a.81.81,0,0,1-.21-.05.22.22,0,0,1-.1-.09.16.16,0,0,1,0-.12l1.59-8a.16.16,0,0,1,.05-.11.28.28,0,0,1,.14-.09.59.59,0,0,1,.21-.05h.61a.48.48,0,0,1,.19.05.14.14,0,0,1,.08.09.14.14,0,0,1,0,.11l-.29,1.45a6.22,6.22,0,0,1,.48-.7,3.69,3.69,0,0,1,.61-.58,3.06,3.06,0,0,1,.69-.41,1.76,1.76,0,0,1,.7-.15l.31,0,.28.06.24.07a.35.35,0,0,1,.15.09A.22.22,0,0,1,199,91.15Z" />
  <path class="cls-3"
        d="M212.75,89a2.23,2.23,0,0,1-.06.46,1.39,1.39,0,0,1-.17.44q-.11.15-.21.15a.47.47,0,0,1-.3-.16,2.61,2.61,0,0,0-.45-.35,3.09,3.09,0,0,0-1.85-.52,3.11,3.11,0,0,0-1.35.28,3.75,3.75,0,0,0-1.11.75,5.44,5.44,0,0,0-.86,1.09,8.14,8.14,0,0,0-.62,1.3,8.38,8.38,0,0,0-.36,1.37,6.83,6.83,0,0,0-.13,1.31,4.08,4.08,0,0,0,.18,1.26,2.74,2.74,0,0,0,.51.94,2.2,2.2,0,0,0,.83.57,2.92,2.92,0,0,0,1.1.2,3.92,3.92,0,0,0,1.2-.16,4.29,4.29,0,0,0,.85-.34,6.94,6.94,0,0,0,.6-.35.8.8,0,0,1,.39-.15.14.14,0,0,1,.14.07.41.41,0,0,1,0,.21,1.05,1.05,0,0,1,0,.13.57.57,0,0,1,0,.18,1.55,1.55,0,0,1,0,.21,1.42,1.42,0,0,1,0,.22c0,.07-.05.13-.08.19a.86.86,0,0,1-.13.17,1.93,1.93,0,0,1-.39.26,3.86,3.86,0,0,1-.73.33,7.38,7.38,0,0,1-1,.26,5.25,5.25,0,0,1-1.14.11,4.64,4.64,0,0,1-1.63-.27,3.26,3.26,0,0,1-1.24-.79,3.64,3.64,0,0,1-.79-1.31,5.6,5.6,0,0,1-.27-1.81,8.74,8.74,0,0,1,.17-1.73,9.56,9.56,0,0,1,.52-1.73,8.36,8.36,0,0,1,.87-1.58,6.26,6.26,0,0,1,1.2-1.31,5.54,5.54,0,0,1,1.55-.89,5.43,5.43,0,0,1,1.89-.32,4.59,4.59,0,0,1,1.2.15,4.19,4.19,0,0,1,1,.36,2.85,2.85,0,0,1,.57.4A.53.53,0,0,1,212.75,89Z" />
  <path class="cls-3"
        d="M219.28,99.11a.31.31,0,0,1-.06.13.36.36,0,0,1-.12.08.81.81,0,0,1-.21.05l-.31,0-.3,0a.74.74,0,0,1-.19-.05.15.15,0,0,1-.08-.08.19.19,0,0,1,0-.13l.29-1.5a2.37,2.37,0,0,1-.44.64,4.82,4.82,0,0,1-.72.61,3.71,3.71,0,0,1-.91.46,3.05,3.05,0,0,1-2,0,1.76,1.76,0,0,1-.66-.45,1.69,1.69,0,0,1-.36-.69,2.94,2.94,0,0,1-.11-.86,4.22,4.22,0,0,1,0-.6c0-.2.06-.41.1-.61l1-5a.24.24,0,0,1,.06-.11.28.28,0,0,1,.14-.09.72.72,0,0,1,.24-.05h.71a.54.54,0,0,1,.21.05.18.18,0,0,1,.1.09.2.2,0,0,1,0,.11l-1,4.94a4,4,0,0,0-.08.48,4.36,4.36,0,0,0,0,.51,2.44,2.44,0,0,0,0,.48,1,1,0,0,0,.17.38.83.83,0,0,0,.31.24,1,1,0,0,0,.46.09,1.94,1.94,0,0,0,1-.27,3.38,3.38,0,0,0,.92-.75,5.31,5.31,0,0,0,.76-1.13,6,6,0,0,0,.49-1.44l.7-3.53a.14.14,0,0,1,.06-.11.28.28,0,0,1,.14-.09.72.72,0,0,1,.24-.05h.71a.54.54,0,0,1,.21.05.18.18,0,0,1,.1.09.37.37,0,0,1,0,.11Z" />
  <path class="cls-3"
        d="M228,91.57a1.29,1.29,0,0,1,0,.24c0,.1,0,.19-.07.29l-.12.24a.18.18,0,0,1-.15.09.48.48,0,0,1-.25-.08l-.36-.19a3.19,3.19,0,0,0-.51-.2,2.41,2.41,0,0,0-.7-.08,1.85,1.85,0,0,0-.69.11,1.44,1.44,0,0,0-.51.3,1.31,1.31,0,0,0-.31.43,1.25,1.25,0,0,0-.1.51.82.82,0,0,0,.23.59,2.4,2.4,0,0,0,.59.42c.24.12.49.25.77.37a4.07,4.07,0,0,1,.76.44,2.18,2.18,0,0,1,.58.63,1.63,1.63,0,0,1,.24.92,2.66,2.66,0,0,1-.25,1.16,2.51,2.51,0,0,1-.7.92,3.15,3.15,0,0,1-1.1.6,4.35,4.35,0,0,1-1.44.22,5,5,0,0,1-.79-.06,5.32,5.32,0,0,1-.66-.16,3.11,3.11,0,0,1-.51-.22,2.08,2.08,0,0,1-.33-.22.65.65,0,0,1-.1-.15.48.48,0,0,1,0-.18,1.09,1.09,0,0,1,0-.17,1.62,1.62,0,0,1,0-.2l.06-.21a.89.89,0,0,1,.08-.17.48.48,0,0,1,.09-.13.14.14,0,0,1,.1,0,.46.46,0,0,1,.26.12,4.36,4.36,0,0,0,.39.26,4,4,0,0,0,.61.25,2.88,2.88,0,0,0,.9.12,2.57,2.57,0,0,0,.84-.12,1.62,1.62,0,0,0,.58-.32,1.18,1.18,0,0,0,.34-.46,1.33,1.33,0,0,0,.11-.56.81.81,0,0,0-.23-.61,2.48,2.48,0,0,0-.58-.42c-.23-.13-.48-.25-.76-.38a4,4,0,0,1-.75-.44,2.06,2.06,0,0,1-.59-.62,1.73,1.73,0,0,1-.23-.93,2.66,2.66,0,0,1,.23-1.09,2.48,2.48,0,0,1,.65-.86,2.86,2.86,0,0,1,1-.57,3.87,3.87,0,0,1,1.31-.21,4.62,4.62,0,0,1,.65.05,4.48,4.48,0,0,1,.58.14,3.44,3.44,0,0,1,.46.17,1.21,1.21,0,0,1,.29.2A.37.37,0,0,1,228,91.57Z" />
  <path class="cls-3"
        d="M234.55,91.23s0,.11,0,.17a1.29,1.29,0,0,1,0,.19,1.59,1.59,0,0,1-.07.2l-.09.17a.43.43,0,0,1-.11.12.23.23,0,0,1-.14,0h-2l-.9,4.45q0,.18-.06.42a3,3,0,0,0,0,.38,1,1,0,0,0,.2.66.77.77,0,0,0,.61.2,1.76,1.76,0,0,0,.42,0,1.6,1.6,0,0,0,.3-.08l.23-.08a.38.38,0,0,1,.17,0,.13.13,0,0,1,.11.05.34.34,0,0,1,0,.18,2.5,2.5,0,0,1,0,.25l-.06.27A1.34,1.34,0,0,1,233,99a.57.57,0,0,1-.12.17.64.64,0,0,1-.21.12,1.82,1.82,0,0,1-.33.11l-.39.08-.41,0a3.13,3.13,0,0,1-.86-.1A1.4,1.4,0,0,1,230,99a1.28,1.28,0,0,1-.37-.56,2.49,2.49,0,0,1-.12-.82,2.09,2.09,0,0,1,0-.24q0-.12,0-.27l0-.28a2.56,2.56,0,0,0,.05-.27l.9-4.48h-1.11a.25.25,0,0,1-.15-.05.41.41,0,0,1,0-.23c0-.08,0-.18,0-.29a2.17,2.17,0,0,1,.08-.3.69.69,0,0,1,.14-.24.25.25,0,0,1,.2-.1h1.12l.38-1.9a.16.16,0,0,1,0-.11.34.34,0,0,1,.14-.09.7.7,0,0,1,.24-.06l.36,0,.35,0a.53.53,0,0,1,.21.06.18.18,0,0,1,.1.09.37.37,0,0,1,0,.11l-.38,1.9h2a.17.17,0,0,1,.18.1A.51.51,0,0,1,234.55,91.23Z" />
  <path class="cls-3"
        d="M242.77,93.78a7.76,7.76,0,0,1-.12,1.34,6.56,6.56,0,0,1-.38,1.31,5.47,5.47,0,0,1-.64,1.19,4.47,4.47,0,0,1-.91,1,4.24,4.24,0,0,1-1.2.66,4.39,4.39,0,0,1-1.49.24,4.77,4.77,0,0,1-1.46-.2,2.62,2.62,0,0,1-1-.6,2.28,2.28,0,0,1-.57-1,4,4,0,0,1-.19-1.29,7.65,7.65,0,0,1,.12-1.33,6.4,6.4,0,0,1,1-2.51,4.71,4.71,0,0,1,.91-1,4.63,4.63,0,0,1,1.2-.66,4.35,4.35,0,0,1,1.49-.24A4.5,4.5,0,0,1,241,91a2.62,2.62,0,0,1,1,.6,2.48,2.48,0,0,1,.58,1A4.26,4.26,0,0,1,242.77,93.78Zm-1.54.09a3.26,3.26,0,0,0-.09-.8,1.32,1.32,0,0,0-.88-1,2.3,2.3,0,0,0-.84-.14,2.5,2.5,0,0,0-1,.19,2.55,2.55,0,0,0-.77.52,3.25,3.25,0,0,0-.6.76,5.13,5.13,0,0,0-.41.92,6.28,6.28,0,0,0-.33,2,3.18,3.18,0,0,0,.1.8,1.44,1.44,0,0,0,.32.6,1.24,1.24,0,0,0,.56.38,2.3,2.3,0,0,0,.84.14,2.5,2.5,0,0,0,1-.19,2.68,2.68,0,0,0,.77-.52,3.16,3.16,0,0,0,.59-.76,4.89,4.89,0,0,0,.42-.93,5.93,5.93,0,0,0,.24-1A5.81,5.81,0,0,0,241.23,93.87Z" />
  <path class="cls-3"
        d="M255.68,99.11a.22.22,0,0,1-.05.12.56.56,0,0,1-.14.09,1.11,1.11,0,0,1-.24.05l-.36,0-.35,0a.81.81,0,0,1-.21-.05.22.22,0,0,1-.1-.09.16.16,0,0,1,0-.12l1-4.92c0-.17.06-.34.08-.49a3.55,3.55,0,0,0,0-.46,1.66,1.66,0,0,0-.22-.9.82.82,0,0,0-.76-.34,1.83,1.83,0,0,0-.91.27,3.62,3.62,0,0,0-.9.74,5,5,0,0,0-.76,1.13,5.7,5.7,0,0,0-.47,1.41l-.71,3.56a.23.23,0,0,1-.06.12.56.56,0,0,1-.14.09,1.11,1.11,0,0,1-.24.05l-.36,0-.35,0a.81.81,0,0,1-.21-.05s-.08-.06-.09-.09a.16.16,0,0,1,0-.12l1-4.92a3.23,3.23,0,0,0,.08-.53,4.09,4.09,0,0,0,0-.47,1.6,1.6,0,0,0-.22-.87.87.87,0,0,0-.76-.32,1.83,1.83,0,0,0-.92.27,3.76,3.76,0,0,0-.89.74,5,5,0,0,0-.76,1.13,5.7,5.7,0,0,0-.47,1.41l-.71,3.56a.24.24,0,0,1-.07.12.36.36,0,0,1-.13.09,1,1,0,0,1-.23.05l-.36,0-.36,0a.81.81,0,0,1-.21-.05.3.3,0,0,1-.1-.09.16.16,0,0,1,0-.12l1.6-8a.16.16,0,0,1,0-.11.23.23,0,0,1,.12-.09.65.65,0,0,1,.21-.05h.62a.43.43,0,0,1,.18.05.16.16,0,0,1,.09.09.2.2,0,0,1,0,.11l-.3,1.52A2.5,2.5,0,0,1,247,92a4.27,4.27,0,0,1,.71-.62,4.21,4.21,0,0,1,.89-.47,2.68,2.68,0,0,1,1-.19,2.44,2.44,0,0,1,.91.15,1.55,1.55,0,0,1,.63.4,1.58,1.58,0,0,1,.36.6,3.54,3.54,0,0,1,.14.76,3.65,3.65,0,0,1,.49-.64,3.9,3.9,0,0,1,.71-.62,4.68,4.68,0,0,1,.89-.46,2.54,2.54,0,0,1,1-.19,2.64,2.64,0,0,1,1,.17,1.71,1.71,0,0,1,1,1.14,3.3,3.3,0,0,1,.1.85,6.08,6.08,0,0,1,0,.61c0,.2-.06.41-.1.62Z" />
  <path class="cls-3"
        d="M266,92.77a2.14,2.14,0,0,1-.28,1.1,2.39,2.39,0,0,1-.89.83,4.94,4.94,0,0,1-1.54.53,11.18,11.18,0,0,1-2.25.19h-.94A3.78,3.78,0,0,0,260,96a4.79,4.79,0,0,0,0,.52,1.86,1.86,0,0,0,.44,1.35,1.83,1.83,0,0,0,1.42.47,5.41,5.41,0,0,0,1-.08l.78-.18.54-.18a1,1,0,0,1,.3-.09.14.14,0,0,1,.12.06.34.34,0,0,1,0,.16c0,.06,0,.13,0,.22a1.29,1.29,0,0,1-.06.25,1.14,1.14,0,0,1-.22.44,1.09,1.09,0,0,1-.37.21,5.33,5.33,0,0,1-.65.18,7.51,7.51,0,0,1-.81.14,8.85,8.85,0,0,1-.89,0,4.81,4.81,0,0,1-1.38-.18,2.5,2.5,0,0,1-1-.54,2.3,2.3,0,0,1-.58-.92,3.8,3.8,0,0,1-.2-1.29,8,8,0,0,1,.11-1.24,7.58,7.58,0,0,1,.35-1.3,6.53,6.53,0,0,1,.62-1.24,4.84,4.84,0,0,1,.91-1.05,4.23,4.23,0,0,1,1.22-.72,4.05,4.05,0,0,1,1.56-.28,3.63,3.63,0,0,1,1.26.19,2.49,2.49,0,0,1,.85.48,1.75,1.75,0,0,1,.48.65A1.81,1.81,0,0,1,266,92.77Zm-1.5.13a.88.88,0,0,0-.35-.73,1.64,1.64,0,0,0-1-.28,2.54,2.54,0,0,0-1,.2,2.6,2.6,0,0,0-.78.54,3.33,3.33,0,0,0-.59.78,5,5,0,0,0-.39,1h.9a8.52,8.52,0,0,0,1.56-.12,3.82,3.82,0,0,0,1-.31,1.31,1.31,0,0,0,.53-.47A1.12,1.12,0,0,0,264.47,92.9Z" />
  <path class="cls-3"
        d="M273.12,91.15s0,.07,0,.14,0,.14,0,.23,0,.18-.06.28a1.14,1.14,0,0,1-.09.26,1,1,0,0,1-.11.2.17.17,0,0,1-.13.08.34.34,0,0,1-.15,0l-.19-.07-.23-.08a1.42,1.42,0,0,0-.31,0,1.38,1.38,0,0,0-.7.26,3.71,3.71,0,0,0-.77.73,5.24,5.24,0,0,0-.7,1.09,5.31,5.31,0,0,0-.46,1.36l-.7,3.55a.23.23,0,0,1-.06.12.56.56,0,0,1-.14.09,1,1,0,0,1-.23.05l-.36,0-.36,0a.81.81,0,0,1-.21-.05.3.3,0,0,1-.1-.09.24.24,0,0,1,0-.12l1.58-8a.24.24,0,0,1,.06-.11.25.25,0,0,1,.13-.09.65.65,0,0,1,.22-.05h.61a.39.39,0,0,1,.18.05.16.16,0,0,1,.09.09.37.37,0,0,1,0,.11l-.3,1.45a5.22,5.22,0,0,1,.49-.7,3.29,3.29,0,0,1,.6-.58,3.06,3.06,0,0,1,.69-.41,1.8,1.8,0,0,1,.7-.15l.31,0,.29.06.23.07a.48.48,0,0,1,.16.09A.26.26,0,0,1,273.12,91.15Z" />
  <path class="cls-3"
        d="M279.28,91.57a1.29,1.29,0,0,1,0,.24,1.57,1.57,0,0,1-.08.29,1.33,1.33,0,0,1-.11.24.19.19,0,0,1-.15.09.48.48,0,0,1-.25-.08l-.36-.19a3.19,3.19,0,0,0-.51-.2,2.45,2.45,0,0,0-.7-.08,1.85,1.85,0,0,0-.69.11,1.44,1.44,0,0,0-.51.3,1.31,1.31,0,0,0-.31.43,1.25,1.25,0,0,0-.1.51.78.78,0,0,0,.23.59,2.22,2.22,0,0,0,.59.42c.24.12.49.25.77.37a4.42,4.42,0,0,1,.76.44,2.18,2.18,0,0,1,.58.63,1.63,1.63,0,0,1,.24.92,2.66,2.66,0,0,1-.25,1.16,2.51,2.51,0,0,1-.7.92,3.15,3.15,0,0,1-1.1.6,4.35,4.35,0,0,1-1.44.22,5,5,0,0,1-.79-.06,5.32,5.32,0,0,1-.66-.16,3.11,3.11,0,0,1-.51-.22,2.08,2.08,0,0,1-.33-.22.44.44,0,0,1-.1-.15.48.48,0,0,1,0-.18,1.09,1.09,0,0,1,0-.17,1.62,1.62,0,0,1,0-.2l.06-.21a.89.89,0,0,1,.08-.17.32.32,0,0,1,.08-.13.16.16,0,0,1,.11,0,.46.46,0,0,1,.26.12,4.36,4.36,0,0,0,.39.26,3.64,3.64,0,0,0,.61.25,2.88,2.88,0,0,0,.9.12,2.57,2.57,0,0,0,.84-.12,1.62,1.62,0,0,0,.58-.32,1.18,1.18,0,0,0,.34-.46,1.51,1.51,0,0,0,.11-.56.85.85,0,0,0-.23-.61,2.71,2.71,0,0,0-.58-.42c-.23-.13-.49-.25-.76-.38a4,4,0,0,1-.75-.44,2.06,2.06,0,0,1-.59-.62,1.65,1.65,0,0,1-.23-.93,2.51,2.51,0,0,1,.23-1.09,2.48,2.48,0,0,1,.65-.86,2.77,2.77,0,0,1,1-.57,3.85,3.85,0,0,1,1.3-.21,4.4,4.4,0,0,1,.65.05,4.11,4.11,0,0,1,.58.14,3.14,3.14,0,0,1,.47.17,1.21,1.21,0,0,1,.29.2A.37.37,0,0,1,279.28,91.57Z" />
  <g class="cls-4">
    <rect class="cls-5" x="62.16" y="0.7" width="77.13" height="77.13" />
  </g>
</svg>